# xmcd CD database file
#
# Track frame offsets:
#	150
#	20070
#	37250
#	54830
#	76330
#	89355
#	114355
#	129230
#	145865
#	160467
#
# Disc length: 2330 seconds
#
# Revision: 2
# Processed by: cddbd v1.5.2PL0 Copyright (c) Steve Scherf et al.
# Submitted via: CDex 1.70beta2
#
DISCID=7e09180a
DTITLE=The Directions - The Directions
DYEAR=1975
DGENRE=Soul
TTITLE0=I Want To Be Your Special Man (Col Chet Fisher)
TTITLE1=We Need Love (Vocal) (The Directions)
TTITLE2=Too Many Secrets (Vocal) (The Directions)
TTITLE3=Copy Cat (The Directions)
TTITLE4=She'll Never Say It (Benny Clark)
TTITLE5=I Love You So (The Directions)
TTITLE6=Soup Line (The Directions)
TTITLE7=We Need Love (Instrumental) (The Directions)
TTITLE8=Too Mnay Secrets (Instrumental) (The Directions)
TTITLE9=If You Ever (The Directions)
EXTD=YEAR: 1975
EXTT0=
EXTT1=
EXTT2=
EXTT3=
EXTT4=
EXTT5=
EXTT6=
EXTT7=
EXTT8=
EXTT9=
PLAYORDER=
